Coordinates
version=1
nRows=17
nColumns=36
inDegrees=yes

Units are S.I. units (second, meters, Newtons, ...)
If the header above contains a line with 'inDegrees', this indicates whether rotational values are in degrees (yes) or radians (no).

endheader
time	pelvis_tilt	pelvis_list	pelvis_rotation	pelvis_tx	pelvis_ty	pelvis_tz	hip_flexion_r	hip_adduction_r	hip_rotation_r	knee_angle_r	knee_angle_r_beta	ankle_angle_r	subtalar_angle_r	mtp_angle_r	hip_flexion_l	hip_adduction_l	hip_rotation_l	knee_angle_l	knee_angle_l_beta	ankle_angle_l	subtalar_angle_l	mtp_angle_l	lumbar_extension	lumbar_bending	lumbar_rotation	arm_flex_r	arm_add_r	arm_rot_r	elbow_flex_r	pro_sup_r	arm_flex_l	arm_add_l	arm_rot_l	elbow_flex_l	pro_sup_l
      6.75000000	     -4.98584623	     -0.52150453	     -8.37886243	      1.41812047	      1.00354083	      0.06511537	      2.80592730	     -7.38510377	    -15.04907605	      1.22145739	      0.02131845	      1.77935327	      1.82799855	     -7.49999987	      1.23158407	     -6.37099588	     -4.29763965	      0.79694066	      0.01390924	      5.15885441	      0.46236732	     -7.49999987	      3.26823887	     -1.17687572	      1.89440150	     36.10340950	      2.76574874	     53.95245460	    134.51969328	     94.90321499	     38.69679415	      0.34751509	     65.66460364	    141.45906395	     87.39661742
      6.76666670	     -4.90719953	     -0.60635275	     -8.32991679	      1.41760224	      1.01187935	      0.06500237	      2.58642230	     -7.24548936	    -14.85756067	      1.20353362	      0.02100562	      1.90442432	      1.72839223	     -7.49999987	      1.06646880	     -6.50755391	     -4.44849109	      0.74630931	      0.01302555	      5.15367488	      0.62257604	     -7.49999987	      3.44030843	     -1.15914520	      1.99886914	     35.52990221	      2.45705755	     54.52003984	    134.61356005	     94.08919858	     37.79536391	      0.00475336	     65.91865830	    141.77498653	     86.78052910
      6.78333330	     -4.89524733	     -0.64998433	     -8.19735856	      1.41762529	      1.01168812	      0.06421866	      2.43099676	     -7.16921599	    -14.83537129	      1.20152856	      0.02097063	      2.11937549	      1.81727648	     -7.49999987	      1.00997733	     -6.57639422	     -4.27023454	      0.69818542	      0.01218563	      4.99377121	      0.29040082	     -7.49999987	      3.75432817	     -1.20639395	      1.96181704	     34.75963404	      2.28590765	     54.37805737	    134.94081922	     95.99391805	     37.36935932	      0.06915264	     66.21509239	    142.18096939	     88.23637938
      6.80000000	     -4.85448914	     -0.72330826	     -8.22083650	      1.41272519	      1.01131700	      0.06719165	      2.34421567	     -7.01999107	    -14.73625850	      1.21102907	      0.02113644	      2.28690719	      1.79891288	     -7.49999987	      0.93961079	     -6.70083702	     -4.52092646	      0.67942943	      0.01185828	      5.02706768	      0.46572310	     -7.49999987	      3.91150871	     -1.27622581	      1.89958852	     34.62507056	      2.60686079	     54.05911306	    134.61643082	     95.97903694	     37.41191534	     -0.24606697	     66.10836109	    142.94184180	     88.17593584
      6.81666670	     -4.80031882	     -0.77917076	     -8.17328308	      1.41282759	      1.01560793	      0.06597124	      2.22213000	     -6.92246646	    -14.63184283	      1.18210227	      0.02063158	      2.38367777	      1.83585344	     -7.49999987	      0.87641596	     -6.80090269	     -4.59716926	      0.63906765	      0.01115383	      4.92842636	      0.52960141	     -7.49999987	      3.94845659	     -1.36489249	      1.86198865	     34.22726118	      2.26767694	     54.07928439	    134.84583634	     95.98505496	     36.96371928	     -0.93081286	     66.10188200	    143.11685613	     88.14246969
      6.83333330	     -4.81326682	     -0.81459054	     -8.19714021	      1.41214140	      1.01293966	      0.06669459	      2.21441567	     -6.83780481	    -14.52452701	      1.17684693	      0.02053985	      2.49148758	      1.88842016	     -7.49999987	      0.88497246	     -6.89394024	     -4.89308763	      0.62367531	      0.01088519	      4.93995061	      0.83975055	     -7.49999987	      4.14312084	     -1.37602385	      1.46282309	     34.23316005	      2.46739172	     53.86403864	    134.65054391	     96.94373993	     36.82507293	     -1.34670077	     65.64279829	    143.62134318	     85.52380620
      6.85000000	     -4.74164866	     -0.88923346	     -8.20452036	      1.41256670	      1.01281267	      0.07301580	      2.11250945	     -6.69268230	    -14.51471920	      1.20211830	      0.02098092	      2.50841380	      1.89802406	     -7.49999987	      0.82875068	     -7.03606821	     -4.92359506	      0.64551284	      0.01126632	      4.90121769	      0.82778203	     -7.49999987	      4.32666748	     -1.54233954	      1.49220055	     34.20060415	      2.58743444	     53.90357232	    134.67560073	     96.94373992	     36.86181388	     -1.38203061	     65.62032488	    143.66922000	     85.52226672
      6.86666670	     -4.71605889	     -0.95385437	     -8.34727645	      1.41632005	      1.01057176	      0.07110339	      2.03225868	     -6.55464909	    -14.31153071	      1.14051551	      0.01990575	      2.62822554	      2.06584648	     -7.49999987	      0.71862652	     -7.16522473	     -5.24528203	      0.59255447	      0.01034203	      4.65466465	      0.80640896	     -7.49999987	      4.68623392	     -1.45754587	      1.38124972	     33.84441712	      3.07157033	     53.94786710	    134.68917684	     96.93016221	     36.92586967	     -1.31471440	     65.67222539	    144.26536899	     85.49929909
      6.88333330	     -4.63513947	     -0.99966294	     -8.37083294	      1.41178332	      1.01003693	      0.07321163	      1.95033545	     -6.45599418	    -14.28752115	      1.16337743	      0.02030477	      2.63840040	      2.08212838	     -7.49999987	      0.65343400	     -7.27789961	     -5.29562279	      0.61705395	      0.01076962	      4.63027888	      0.79374004	     -7.49999987	      4.85277613	     -1.58173462	      1.34229927	     33.76534399	      3.05761392	     53.99040762	    134.68834845	     96.93196056	     36.88381767	     -1.35746921	     65.70261462	    144.33415416	     85.49835443
      6.90000000	     -4.66195322	     -1.06016075	     -8.52847900	      1.41128476	      1.00406481	      0.07379104	      1.96380392	     -6.31743936	    -14.07033363	      1.11574978	      0.01947351	      2.73694792	      2.09713865	     -7.49999987	      0.64419867	     -7.41218597	     -5.68598896	      0.61695990	      0.01076798	      4.54243647	      0.82033018	     -7.49999987	      5.20438098	     -1.47121164	      1.22008996	     34.04334913	      3.37354340	     53.65090908	    134.52692978	     96.32893996	     37.05084234	     -1.31877985	     65.40755670	    144.97476635	     85.08002291
      6.91666670	     -4.64262463	     -1.10839231	     -8.60571982	      1.41158109	      1.00639398	      0.07293046	      1.93623236	     -6.22611032	    -14.02024097	      1.12518564	      0.01963819	      2.81783334	      2.22230008	     -7.49999987	      0.64035529	     -7.52332623	     -5.83783453	      0.64633104	      0.01128060	      4.45854392	      0.87144473	     -7.49999987	      5.33343191	     -1.42482933	      1.00666910	     34.32202668	      3.47673369	     53.88418930	    134.37612326	     95.27620840	     37.01782811	     -1.52057338	     65.22435562	    145.30906200	     82.45512908
      6.93333330	     -4.63936960	     -1.14231345	     -8.75581385	      1.41112573	      1.00641432	      0.07337213	      1.95613628	     -6.14457869	    -13.84760448	      1.12153919	      0.01957455	      2.85071544	      2.22091662	     -7.49999987	      0.63413419	     -7.61588340	     -6.09315948	      0.67321934	      0.01174989	      4.48992381	      1.06707904	     -7.49999987	      5.50266826	     -1.43004287	      0.98615165	     34.28376807	      3.41367471	     53.67894759	    134.31097859	     95.38506801	     37.04632102	     -1.51858674	     65.02444947	    145.36519913	     81.79849830
      6.95000000	     -4.65432805	     -1.14573911	     -8.79604192	      1.40188133	      1.00565801	      0.07139105	      2.04647041	     -6.12618206	    -13.79313182	      1.13593710	      0.01982584	      2.91521776	      2.26763462	     -7.49999987	      0.73942136	     -7.66564089	     -6.20275945	      0.73384021	      0.01280793	      4.44545474	      1.07343014	     -7.49999987	      5.50209223	     -1.42309944	      0.87611232	     34.60150463	      3.01098888	     53.59821216	    134.30898319	     95.37815407	     37.29607615	     -1.77242945	     64.79761075	    145.29522885	     81.79921168
      6.96666670	     -4.62761664	     -1.18114230	     -8.78283714	      1.40689873	      1.01407074	      0.07560648	      2.00570266	     -6.05909589	    -13.76643930	      1.09808532	      0.01916520	      2.97829616	      2.41105300	     -7.49999987	      0.77759982	     -7.75152871	     -6.21594256	      0.77572807	      0.01353901	      4.30229988	      1.02221809	     -7.49999987	      5.38687138	     -1.42353244	      0.69367618	     34.12076622	      2.55111102	     53.91014041	    133.87743905	     94.61202381	     36.69569371	     -2.37462829	     64.77594969	    145.22221038	     81.51943171
      6.98333330	     -4.63579440	     -1.18632225	     -8.87961756	      1.40719469	      1.01366183	      0.07528004	      2.03927353	     -6.01760376	    -13.64161629	      1.06994450	      0.01867405	      2.96838407	      2.49401501	     -7.49999987	      0.81066822	     -7.81222047	     -6.55320347	      0.79915898	      0.01394796	      4.26860700	      1.25672404	     -7.49999987	      5.42109665	     -1.42298703	      0.66912412	     33.72260691	      2.23929599	     53.79565014	    133.54964696	     96.15862067	     36.26528221	     -2.87715622	     64.55416484	    145.21902313	     82.14477927
      7.00000000	     -4.66421008	     -1.19498709	     -8.92192296	      1.40658179	      1.01116451	      0.07599049	      2.07476923	     -5.97717045	    -13.57440930	      1.02418857	      0.01787546	      2.96002414	      2.61325693	     -7.49999987	      0.88089042	     -7.87078664	     -6.64711366	      0.82975521	      0.01448196	      4.12856409	      1.19841087	     -7.49999987	      5.65110646	     -1.36953653	      0.70315358	     33.48945212	      2.05266729	     53.37032353	    133.35300692	     96.36383009	     36.22555666	     -2.78047721	     64.61123239	    145.22499010	     82.24631792
      7.01666670	     -4.68136792	     -1.19169684	     -8.99386346	      1.40699593	      1.01303332	      0.07536044	      2.10281646	     -5.95824758	    -13.47328532	      0.99100519	      0.01729630	      2.96570802	      2.78250524	     -7.49999987	      0.92408933	     -7.91912413	     -6.92335187	      0.85905437	      0.01499333	      4.08080990	      1.43458641	     -7.49999987	      5.87481381	     -1.36280515	      0.38550504	     33.14357560	      2.37613351	     53.41871536	    133.04002516	     96.25212813	     36.12213714	     -2.79814503	     64.35293968	    145.10681985	     82.33556134
